Coordinates
version=1
nRows=19
nColumns=24
inDegrees=yes

Units are S.I. units (second, meters, Newtons, ...)
Angles are in degrees.

endheader
time	pelvis_tilt	pelvis_list	pelvis_rotation	pelvis_tx	pelvis_ty	pelvis_tz	hip_flexion_r	hip_adduction_r	hip_rotation_r	knee_angle_r	ankle_angle_r	subtalar_angle_r	mtp_angle_r	hip_flexion_l	hip_adduction_l	hip_rotation_l	knee_angle_l	ankle_angle_l	subtalar_angle_l	mtp_angle_l	lumbar_extension	lumbar_bending	lumbar_rotation
      4.13000000	     -1.62486246	     -2.90840920	     -1.47432254	      0.41609414	      0.96047106	     -0.27153757	     17.60941762	      2.34988602	    -11.74684986	    -41.19895228	     13.18758563	      9.60861735	      0.00000000	      7.64104838	      1.44320537	      4.24368355	    -13.10191193	     12.56743184	     -3.98923014	      0.00000000	    -18.57921081	      0.22820922	     -0.15659289
      4.14000000	     -1.69344783	     -2.78019259	     -1.05093800	      0.42771971	      0.96072807	     -0.27263093	     18.56114095	      2.21983510	    -11.99336707	    -39.59446595	     13.47418044	      9.67946092	      0.00000000	      6.66753803	      1.63200371	      4.38380687	    -12.47204474	     12.79097746	     -3.78604636	      0.00000000	    -18.60706554	      0.31755073	     -0.78353127
      4.15000000	     -1.74870711	     -2.61806004	     -0.61980824	      0.43933944	      0.96075378	     -0.27365653	     19.43495910	      2.05553389	    -12.18053167	    -37.84653321	     13.68489587	      9.69110995	      0.00000000	      5.72200786	      1.85109826	      4.55766876	    -11.92957787	     13.04974886	     -3.59680627	      0.00000000	    -18.64320943	      0.35962902	     -1.44206642
      4.16000000	     -1.78971477	     -2.41744398	     -0.19440136	      0.45099461	      0.96055780	     -0.27458807	     20.22678526	      1.85865967	    -12.29013392	    -35.95973360	     13.82534470	      9.69328008	      0.00000000	      4.79789411	      2.10367225	      4.76141025	    -11.47544968	     13.33967686	     -3.43238504	      0.00000000	    -18.68459492	      0.34896434	     -2.11750614
      4.17000000	     -1.81205004	     -2.17614745	      0.21295862	      0.46270293	      0.96015010	     -0.27541028	     20.93196960	      1.63354616	    -12.30531465	    -33.94214614	     13.90499405	      9.72802191	      0.00000000	      3.88358892	      2.39146781	      4.99032805	    -11.10360094	     13.65175620	     -3.30359149	      0.00000000	    -18.73851971	      0.27843399	     -2.79529998
      4.18000000	     -1.79718525	     -1.90796633	      0.58251732	      0.47450193	      0.95957654	     -0.27609425	     21.52595206	      1.40280524	    -12.21034157	    -31.79610720	     13.91950457	      9.83632060	      0.00000000	      2.93883792	      2.69726984	      5.23991128	    -10.78332237	     13.96833129	     -3.22900720	      0.00000000	    -18.82565358	      0.16521449	     -3.46432806
      4.19000000	     -1.80224203	     -1.55997023	      0.91493269	      0.48638839	      0.95873169	     -0.27663689	     22.09382903	      1.10342891	    -12.00614821	    -29.58073016	     13.93914513	      9.96654758	      0.00000000	      2.01935808	      3.07808349	      5.49137993	    -10.50094024	     14.30069884	     -3.17291810	      0.00000000	    -18.87755193	     -0.06322498	     -4.12688319
      4.20000000	     -1.74220159	     -1.20933786	      1.22251941	      0.49842520	      0.95779789	     -0.27705742	     22.50517169	      0.82527744	    -11.69321107	    -27.23798573	     13.88325116	     10.16131686	      0.00000000	      1.01513309	      3.44722713	      5.76232644	    -10.22814555	     14.63132810	     -3.15690809	      0.00000000	    -18.99568392	     -0.30085429	     -4.76388476
      4.21000000	     -1.63381162	     -0.85735311	      1.49371479	      0.51060910	      0.95676585	     -0.27732603	     22.77846201	      0.57713115	    -11.23307431	    -24.77671029	     13.74449859	     10.35928738	      0.00000000	     -0.05713314	      3.79883681	      6.02628474	     -9.95916137	     14.91109354	     -3.19311439	      0.00000000	    -19.16057293	     -0.55397887	     -5.34943062
      4.22000000	     -1.52152231	     -0.48033113	      1.75014400	      0.52294682	      0.95557010	     -0.27748748	     22.97402569	      0.31150891	    -10.66379670	    -22.24076258	     13.54539354	     10.47842884	      0.00000000	     -1.15515193	      4.15872519	      6.29589366	     -9.67958554	     15.20908886	     -3.19740435	      0.00000000	    -19.30975272	     -0.84736673	     -5.92058378
      4.23000000	     -1.38831472	     -0.09259850	      2.00922192	      0.53545815	      0.95425809	     -0.27757858	     23.06673734	      0.03051590	    -10.01501925	    -19.63506574	     13.27560421	     10.48583396	      0.00000000	     -2.30112834	      4.50750731	      6.56827878	     -9.37991414	     15.53502778	     -3.13517942	      0.00000000	    -19.45739360	     -1.15310746	     -6.48418038
      4.24000000	     -1.23384740	      0.26303563	      2.23868493	      0.54811436	      0.95286531	     -0.27750609	     23.02696654	     -0.18045241	     -9.10296780	    -16.89730872	     12.71920047	     10.07723155	      0.00000000	     -3.46501782	      4.79555129	      6.78037869	     -9.11211480	     15.78104766	     -3.05020045	      0.00000000	    -19.61872013	     -1.44383171	     -6.95902670
      4.25000000	     -1.06097667	      0.60755041	      2.52823916	      0.56093056	      0.95137287	     -0.27745339	     22.88031128	     -0.43159961	     -8.25062267	    -14.12294215	     12.15038501	      9.56112475	      0.00000000	     -4.63374044	      5.04403227	      7.00816710	     -8.89540300	     16.08834143	     -2.82062537	      0.00000000	    -19.78336132	     -1.70430327	     -7.47369570
      4.26000000	     -0.94053305	      0.97571554	      2.84005675	      0.57390786	      0.94966048	     -0.27737247	     22.72627385	     -0.73765951	     -7.32927327	    -11.36905701	     11.46164258	      8.62891037	      0.00000000	     -5.74051220	      5.29447945	      7.20647829	     -8.71060647	     16.41986450	     -2.45208750	      0.00000000	    -19.85230379	     -1.98767944	     -8.03494066
      4.27000000	     -0.80135745	      1.33603133	      3.18037959	      0.58703446	      0.94785540	     -0.27728878	     22.51479165	     -1.09591658	     -6.71146711	     -8.70438833	     10.75593419	      7.76476873	      0.00000000	     -6.84261471	      5.51280201	      7.40366900	     -8.59665769	     16.74568975	     -2.00162937	      0.00000000	    -19.93063407	     -2.25398604	     -8.58170829
      4.28000000	     -0.67502102	      1.69664863	      3.54143896	      0.60028684	      0.94591133	     -0.27718743	     22.32521084	     -1.50124803	     -6.52002331	     -6.22941265	     10.13829912	      7.09648024	      0.00000000	     -7.89946044	      5.71320983	      7.61186552	     -8.56448052	     17.05717648	     -1.50796728	      0.00000000	    -19.98418282	     -2.51508229	     -9.13056938
      4.29000000	     -0.58131192	      2.03179105	      3.92047540	      0.61366593	      0.94381874	     -0.27706510	     22.22236233	     -1.91041416	     -6.96252617	     -4.04147576	      9.69685334	      6.91163614	      0.00000000	     -8.89034995	      5.87777407	      7.92479863	     -8.61548413	     17.36879356	     -1.11694108	      0.00000000	    -19.98425800	     -2.73835536	     -9.66752498
      4.30000000	     -0.49095233	      2.35687067	      4.29661153	      0.62715835	      0.94163752	     -0.27683106	     22.16304986	     -2.28661037	     -7.64674696	     -2.14687172	      9.36187919	      6.72463950	      0.00000000	     -9.83030983	      6.01519213	      8.16295940	     -8.77102608	     17.63701816	     -0.66343903	      0.00000000	    -19.98306572	     -2.97049919	    -10.17212065
      4.31000000	     -0.39780172	      2.63717617	      4.66160474	      0.64076406	      0.93940998	     -0.27648668	     22.16837754	     -2.59119104	     -8.58403020	     -0.62817096	      9.16929732	      6.65743281	      0.00000000	    -10.71880090	      6.09363882	      8.33148427	     -9.03910766	     17.90336883	     -0.15431979	      0.00000000	    -19.98752512	     -3.15559785	    -10.63721890
